<?xml version="1.0" encoding="utf-8"?>
<!-- Generator: Adobe Illustrator 26.5.0, SVG Export Plug-In . SVG Version: 6.00 Build 0)  -->
<svg version="1.1" xmlns="http://www.w3.org/2000/svg" xmlns:xlink="http://www.w3.org/1999/xlink" x="0px" y="0px"
	 viewBox="0 0 24 24" style="enable-background:new 0 0 24 24;" xml:space="preserve">
<style type="text/css">
	.st0{display:none;}
	.st1{display:inline;fill:#00BC98;}
	.st2{fill:#00BC98;}
</style>
<g id="Layer_1" class="st0">
	<path class="st1" d="M10.4,15.8h3.3v-2.8h2.7V9.8h-2.7V7h-3.3v2.8H7.6v3.3h2.8V15.8z M12,23c-2.5-0.6-4.7-2.1-6.3-4.4
		S3.2,13.8,3.2,11V4.3L12,1l8.8,3.3V11c0,2.8-0.8,5.3-2.5,7.6S14.5,22.4,12,23z"/>
</g>
<g id="Layer_2">
	<path class="st2" d="M10.5,16.5h3v-3h3v-3h-3v-3h-3v3h-3v3h3V16.5z M12,23c-2.5-0.6-4.7-2.1-6.3-4.4S3.2,13.8,3.2,11V4.3L12,1
		l8.8,3.3V11c0,2.8-0.8,5.3-2.5,7.6S14.5,22.4,12,23z"/>
</g>
</svg>
